<svg aria-hidden="true" style="position: absolute; width: 0; height: 0; overflow: hidden;" version="1.1"
    xmlns="http://www.w3.org/2000/svg" xmlns:xlink="http://www.w3.org/1999/xlink">
    <defs>
        <symbol id="icon-discord" viewBox="0 0 32 32">
            <path fill="#7289da" style="fill: var(--color1, #7289da)"
                d="M26.963 0c1.875 0 3.387 1.516 3.476 3.3v28.7l-3.569-3.031-1.96-1.784-2.139-1.864 0.893 2.94h-18.717c-1.869 0-3.387-1.42-3.387-3.301v-21.653c0-1.784 1.52-3.303 3.393-3.303h22zM18.805 7.577h-0.040l-0.269 0.267c2.764 0.8 4.101 2.049 4.101 2.049-1.781-0.891-3.387-1.336-4.992-1.516-1.16-0.18-2.32-0.085-3.3 0h-0.267c-0.627 0-1.96 0.267-3.747 0.98-0.623 0.271-0.98 0.448-0.98 0.448s1.336-1.336 4.28-2.049l-0.18-0.18c0 0-2.229-0.085-4.636 1.693 0 0-2.407 4.192-2.407 9.36 0 0 1.333 2.32 4.991 2.408 0 0 0.533-0.711 1.073-1.336-2.053-0.624-2.853-1.872-2.853-1.872s0.179 0.088 0.447 0.267h0.080c0.040 0 0.059 0.020 0.080 0.040v0.008c0.021 0.021 0.040 0.040 0.080 0.040 0.44 0.181 0.88 0.36 1.24 0.533 0.621 0.269 1.42 0.537 2.4 0.715 1.24 0.18 2.661 0.267 4.28 0 0.8-0.18 1.6-0.356 2.4-0.713 0.52-0.267 1.16-0.533 1.863-0.983 0 0-0.8 1.248-2.94 1.872 0.44 0.621 1.060 1.333 1.060 1.333 3.659-0.080 5.080-2.4 5.16-2.301 0-5.16-2.42-9.36-2.42-9.36-2.18-1.619-4.22-1.68-4.58-1.68zM19.029 13.461c0.937 0 1.693 0.8 1.693 1.78 0 0.987-0.76 1.787-1.693 1.787s-1.693-0.8-1.693-1.779c0.003-0.987 0.764-1.784 1.693-1.788zM12.972 13.461c0.933 0 1.688 0.8 1.688 1.78 0 0.987-0.76 1.787-1.693 1.787s-1.693-0.8-1.693-1.779c0-0.987 0.76-1.784 1.699-1.788z">
            </path>
        </symbol>
        <symbol id="icon-envelop" viewBox="0 0 48 48">
            <path fill="#ed6262" style="fill: var(--color1, #ed6262)"
                d="M43.5 6h-39c-2.475 0-4.5 2.025-4.5 4.5v30c0 2.475 2.025 4.5 4.5 4.5h39c2.475 0 4.5-2.025 4.5-4.5v-30c0-2.475-2.025-4.5-4.5-4.5zM18.691 25.799l-12.691 9.886v-23.514l12.691 13.629zM8.268 12h31.464l-15.732 11.813-15.732-11.813zM19.185 26.33l4.815 5.17 4.815-5.17 9.87 12.67h-29.368l9.87-12.67zM29.309 25.799l12.691-13.629v23.514l-12.691-9.886z">
            </path>
        </symbol>
        <symbol id="icon-location" viewBox="0 0 48 48">
            <path fill="#000000" style="fill: var(--color1, #000000)"
                d="M24 0c-8.284 0-15 6.716-15 15 0 15 15 33 15 33s15-18 15-33c0-8.284-6.716-15-15-15zM24 24c-4.971 0-9-4.029-9-9s4.029-9 9-9 9 4.029 9 9-4.029 9-9 9z">
            </path>
        </symbol>
        <symbol id="icon-checkmark2" viewBox="0 0 48 48">
            <path fill="#72da87" style="fill: var(--color1, #72da87)"
                d="M18.63 43.017l-18.65-18.356 9.252-9.106 9.398 9.25 20.138-19.821 9.252 9.106-29.391 28.928zM5.058 24.661l13.571 13.358 24.312-23.929-4.174-4.108-20.138 19.821-9.398-9.25-4.173 4.108z">
            </path>
        </symbol>
        <symbol id="icon-telegram" viewBox="0 0 48 48">
            <path fill="#7289da" style="fill: var(--color1, #7289da)"
                d="M24 0c-13.256 0-24 10.744-24 24s10.744 24 24 24 24-10.744 24-24-10.744-24-24-24zM35.794 16.453l-3.938 18.553c-0.272 1.322-1.069 1.631-2.175 1.022l-6-4.434-2.878 2.803c-0.337 0.328-0.6 0.6-1.2 0.6-0.778 0-0.647-0.291-0.909-1.031l-2.044-6.712-5.934-1.847c-1.284-0.394-1.294-1.275 0.291-1.903l23.119-8.925c1.050-0.478 2.072 0.253 1.669 1.875z">
            </path>
        </symbol>
        <symbol id="icon-github" viewBox="0 0 48 48">
            <path fill="#000000" style="fill: var(--color1, #000000)"
                d="M24 0.593c-13.253 0-24 10.745-24 24 0 10.604 6.877 19.6 16.413 22.774 1.199 0.222 1.64-0.521 1.64-1.155 0-0.572-0.023-2.463-0.033-4.468-6.677 1.452-8.086-2.832-8.086-2.832-1.091-2.774-2.665-3.512-2.665-3.512-2.177-1.49 0.165-1.459 0.165-1.459 2.409 0.169 3.679 2.473 3.679 2.473 2.141 3.669 5.614 2.608 6.985 1.995 0.215-1.551 0.837-2.61 1.524-3.209-5.331-0.607-10.935-2.665-10.935-11.861 0-2.62 0.938-4.761 2.473-6.442-0.249-0.605-1.071-3.046 0.232-6.352 0 0 2.016-0.645 6.602 2.46 1.914-0.532 3.967-0.799 6.007-0.808 2.039 0.009 4.094 0.276 6.012 0.808 4.581-3.105 6.593-2.46 6.593-2.46 1.306 3.306 0.485 5.747 0.236 6.352 1.538 1.681 2.47 3.822 2.47 6.442 0 9.218-5.615 11.248-10.959 11.842 0.861 0.745 1.628 2.205 1.628 4.444 0 3.211-0.028 5.796-0.028 6.586 0 0.639 0.432 1.387 1.649 1.152 9.531-3.177 16.399-12.17 16.399-22.77 0-13.255-10.745-24-24-24z">
            </path>
        </symbol>
    </defs>
</svg>